<?xml version="1.0" encoding="UTF-8" standalone="no"?>
<!DOCTYPE svg PUBLIC "-//W3C//DTD SVG 1.1//EN" "http://www.w3.org/Graphics/SVG/1.1/DTD/svg11.dtd">
<svg width="96.00" height="96.00" viewBox="0.00 0.00 400.00 400.00" xmlns="http://www.w3.org/2000/svg" xmlns:xlink="http://www.w3.org/1999/xlink">
<g stroke-linecap="round" id="Layer_4">
<path d="M124.78,103.10 C124.78,103.10 123.27,103.30 123.27,103.30 C122.15,104.62 120.94,107.07 120.72,109.00 C120.55,110.90 121.93,113.84 123.36,114.61 C124.76,115.29 127.98,114.91 129.65,113.98 C131.06,113.13 132.78,111.04 133.12,109.82 C133.39,108.65 132.55,105.49 131.61,104.34 C129.96,102.39 125.61,102.69 124.62,102.90" fill="none" stroke="rgb(0, 0, 0)" stroke-width="7.00" stroke-opacity="1.00" stroke-linejoin="round"/>
<path d="M176.38,138.11 C178.95,135.53 188.61,132.75 199.49,130.42 C210.00,128.23 222.22,126.69 229.57,127.48 C235.74,128.19 253.31,133.50 257.92,135.61 C261.53,137.28 267.00,140.85 270.18,143.58 C275.76,148.43 282.46,158.00 286.43,165.50 C289.98,172.21 296.11,185.59 298.41,191.84 C301.52,200.43 304.81,222.24 305.19,224.83 C305.19,224.83 302.69,225.88 302.69,225.88" fill="none" stroke="rgb(0, 0, 0)" stroke-width="7.00" stroke-opacity="1.00" stroke-linejoin="round"/>
<path d="M305.33,222.17 C305.33,222.16 305.33,222.20 305.33,222.21 C305.29,224.77 304.88,226.37 303.72,227.32 C301.68,228.95 295.68,229.53 292.77,229.48 C289.67,229.39 285.16,228.43 281.19,226.89 C276.14,224.89 259.82,216.12 256.80,214.03 C254.80,212.62 248.07,206.59 246.40,204.64 C244.61,202.52 238.89,194.47 238.47,194.00 C238.15,193.63 237.44,192.90 236.33,191.82" fill="none" stroke="rgb(0, 0, 0)" stroke-width="7.00" stroke-opacity="1.00" stroke-linejoin="round"/>
<path d="M290.22,229.80 C290.13,230.36 288.06,239.05 287.77,239.89 C287.23,241.43 283.21,244.14 280.22,244.94 C277.26,245.70 270.22,246.36 266.55,246.05 C265.19,245.92 256.51,244.34 254.70,243.76 C248.76,241.81 238.30,235.53 228.04,228.29 C221.31,223.34 208.56,213.94 207.74,212.33 C207.53,211.92 207.17,210.90 206.65,209.29" fill="none" stroke="rgb(0, 0, 0)" stroke-width="7.00" stroke-opacity="1.00" stroke-linejoin="round"/>
<path d="M239.93,239.02 C239.93,239.02 240.45,238.61 240.45,238.61 C242.02,241.02 242.93,242.60 243.24,243.67 C243.82,245.82 242.55,251.64 241.31,253.21 C240.52,254.13 238.42,255.13 236.82,255.30 C232.12,255.74 218.54,253.29 212.95,250.89 C206.89,248.25 195.92,239.60 191.32,234.75 C189.29,232.58 185.35,227.69 183.81,225.14 C182.27,222.56 178.88,215.19 178.02,212.71 C176.39,207.88 175.25,197.80 174.97,195.17 C174.82,193.69 174.58,191.28 174.48,190.35" fill="none" stroke="rgb(0, 0, 0)" stroke-width="7.00" stroke-opacity="1.00" stroke-linejoin="round"/>
<path d="M92.78,79.10 C89.73,81.24 85.84,86.21 83.56,89.20 C79.52,94.54 73.44,106.75 71.51,112.92 C68.97,121.40 66.34,132.60 65.60,138.40 C64.83,144.61 65.31,161.16 65.70,166.67 C66.22,173.20 68.37,185.83 70.40,192.87 C72.52,200.10 77.99,211.75 82.13,219.10 C85.83,225.53 94.08,237.07 99.11,242.88 C104.05,248.56 112.77,256.76 118.24,260.99 C124.57,265.82 134.01,271.78 140.66,274.93 C146.38,277.62 163.48,283.72 168.89,285.42 C176.44,287.74 191.48,290.82 195.86,291.46 C201.16,292.22 214.61,292.10 220.33,291.22 C225.57,290.40 237.18,287.18 243.01,284.62 C249.89,281.60 263.91,275.34 271.06,272.11 C279.71,268.11 290.60,260.79 296.79,256.59 C302.80,252.51 312.44,244.71 318.31,239.89 C328.13,231.71 337.31,223.51 341.88,217.98 C343.58,215.91 349.97,207.49 350.32,206.38 C350.48,205.89 350.60,204.90 350.70,203.43" fill="none" stroke="rgb(0, 0, 0)" stroke-width="7.00" stroke-opacity="1.00" stroke-linejoin="round"/>
<path d="M89.09,83.71 C90.47,81.48 94.47,78.02 95.90,77.00 C100.04,74.09 112.85,70.01 119.65,68.58 C127.77,66.91 140.19,66.13 149.68,66.26 C154.20,66.38 160.25,67.01 164.43,67.91 C167.98,68.70 172.92,70.25 176.88,71.89 C180.75,73.52 185.87,76.50 188.83,78.78 C192.94,82.00 202.56,92.59 208.28,100.37 C213.17,107.21 221.31,119.09 224.83,124.33" fill="none" stroke="rgb(0, 0, 0)" stroke-width="7.00" stroke-opacity="1.00" stroke-linejoin="round"/>
<path d="M301.15,190.47 C309.11,192.69 335.78,195.68 340.96,195.74 C345.92,195.76 349.91,195.52 354.46,193.84 C355.01,193.63 356.10,193.21 357.72,192.57" fill="none" stroke="rgb(0, 0, 0)" stroke-width="7.00" stroke-opacity="1.00" stroke-linejoin="round"/>
<path d="M356.96,192.34 C356.96,192.34 357.27,191.89 357.27,191.89 C357.25,192.34 354.13,196.66 352.60,199.28 C350.35,203.19 348.42,206.36 346.40,209.47 C345.71,210.50 344.14,212.81 343.25,214.10 C342.87,214.65 342.48,215.19 342.09,215.74" fill="none" stroke="rgb(0, 0, 0)" stroke-width="7.00" stroke-opacity="1.00" stroke-linejoin="round"/>
<path d="M67.99,122.81 C67.99,122.81 68.19,122.97 68.19,122.97 C67.55,123.56 57.68,129.45 39.32,139.09 C35.71,140.90 29.50,143.96 26.90,145.20 C26.66,145.31 26.28,145.47 25.78,145.69" fill="none" stroke="rgb(0, 0, 0)" stroke-width="7.00" stroke-opacity="1.00" stroke-linejoin="round"/>
<path d="M26.39,144.27 C26.39,144.27 26.19,144.34 26.19,144.34 C29.93,145.37 32.87,145.92 38.57,146.58 C42.88,147.09 56.71,150.09 63.98,152.03" fill="none" stroke="rgb(0, 0, 0)" stroke-width="7.00" stroke-opacity="1.00" stroke-linejoin="round"/>
<path d="M173.22,288.69 C173.22,288.69 174.83,321.70 174.83,321.70 C168.26,323.03 152.00,323.96 149.25,323.58 C148.72,323.51 147.44,323.27 145.41,322.88" fill="none" stroke="rgb(0, 0, 0)" stroke-width="7.00" stroke-opacity="1.00" stroke-linejoin="round"/>
<path d="M173.69,320.51 C172.61,322.72 171.95,323.77 171.07,324.38 C169.21,325.65 148.41,338.64 148.40,338.30 C148.41,338.19 148.69,337.70 149.25,336.83" fill="none" stroke="rgb(0, 0, 0)" stroke-width="7.00" stroke-opacity="1.00" stroke-linejoin="round"/>
<path d="M174.83,321.16 C174.83,321.16 175.85,320.38 175.85,320.38 C175.68,323.36 175.30,329.95 175.08,333.56 C174.95,335.60 174.49,340.60 174.67,340.59 C174.79,340.57 175.18,340.18 175.86,339.42" fill="none" stroke="rgb(0, 0, 0)" stroke-width="7.00" stroke-opacity="1.00" stroke-linejoin="round"/>
<path d="M216.16,291.53 C216.16,291.53 216.52,291.25 216.52,291.25 C216.52,291.25 218.89,322.78 218.89,322.78 C213.37,325.34 202.15,330.45 197.80,332.05 C197.46,332.18 196.97,332.35 196.32,332.57" fill="none" stroke="rgb(0, 0, 0)" stroke-width="7.00" stroke-opacity="1.00" stroke-linejoin="round"/>
<path d="M215.05,322.88 C215.05,322.88 215.37,322.84 215.37,322.84 C215.33,325.31 213.44,332.67 212.34,337.02 C210.68,343.48 210.52,344.18 210.41,344.93 C210.41,344.93 211.36,342.64 211.36,342.64" fill="none" stroke="rgb(0, 0, 0)" stroke-width="7.00" stroke-opacity="1.00" stroke-linejoin="round"/>
<path d="M219.87,324.05 C219.87,324.05 228.90,342.64 228.90,342.64" fill="none" stroke="rgb(0, 0, 0)" stroke-width="7.00" stroke-opacity="1.00" stroke-linejoin="round"/>
</g>
</svg>
