<?xml version="1.0" encoding="UTF-8" standalone="no"?>
<!DOCTYPE svg PUBLIC "-//W3C//DTD SVG 1.1//EN" "http://www.w3.org/Graphics/SVG/1.1/DTD/svg11.dtd">
<svg width="96.00" height="96.00" viewBox="0.00 0.00 400.00 400.00" xmlns="http://www.w3.org/2000/svg" xmlns:xlink="http://www.w3.org/1999/xlink">
<g stroke-linecap="round" id="Layer_4">
<path d="M216.98,212.51 C217.78,212.46 218.86,212.66 219.71,213.19 C220.74,213.87 222.13,215.74 222.71,217.29 C223.25,218.83 223.12,221.40 222.37,222.37 C221.71,223.18 218.79,224.17 217.41,224.16 C215.99,224.10 213.53,223.06 212.31,222.09 C211.45,221.33 210.51,218.56 210.78,217.20 C211.68,213.48 215.82,211.96 218.34,211.59 C218.43,211.59 218.68,211.57 218.59,211.59" fill="none" stroke="rgb(0, 0, 0)" stroke-width="7.61" stroke-opacity="1.00" stroke-linejoin="round"/>
<path d="M301.53,210.75 C301.90,210.69 302.89,211.02 303.64,211.67 C304.62,212.55 306.22,214.81 306.59,215.94 C306.96,217.19 306.87,219.78 306.23,220.61 C305.43,221.57 302.40,222.68 300.85,222.63 C299.42,222.54 296.67,221.44 295.75,220.65 C295.52,220.43 293.65,217.62 293.59,217.05 C293.50,215.32 295.41,212.55 297.40,211.65 C298.79,211.04 301.80,210.98 303.26,211.26 C303.52,211.32 303.77,211.41 304.01,211.53" fill="none" stroke="rgb(0, 0, 0)" stroke-width="7.61" stroke-opacity="1.00" stroke-linejoin="round"/>
<path d="M325.50,220.76 C325.50,220.76 326.27,219.45 326.27,219.45 C326.27,219.44 326.30,219.45 326.30,219.46 C326.84,221.73 329.42,229.67 330.03,230.78 C330.22,231.12 335.33,239.05 336.57,242.65 C337.19,244.48 338.58,251.41 338.63,254.52 C338.66,257.97 337.14,265.14 336.60,266.81 C335.82,269.14 333.55,272.85 332.02,275.03 C330.08,277.72 317.68,287.52 311.43,291.01 C304.70,294.74 291.06,301.30 283.87,303.23 C276.01,305.30 265.38,306.41 257.91,306.07 C248.47,305.57 240.52,304.77 230.52,303.32 C223.94,302.31 211.30,298.65 204.82,296.28 C199.82,294.43 182.87,286.59 178.89,284.45 C172.29,280.89 164.06,275.61 161.36,273.44 C160.67,272.88 157.88,270.47 157.04,269.74" fill="none" stroke="rgb(0, 0, 0)" stroke-width="7.61" stroke-opacity="1.00" stroke-linejoin="round"/>
<path d="M297.93,157.96 C297.92,157.99 297.87,157.93 297.87,157.90 C297.86,155.94 298.29,150.52 298.79,148.61 C299.52,145.92 307.36,127.12 310.86,118.88 C315.55,108.06 318.11,102.91 322.71,94.69 C327.19,86.90 334.66,76.24 338.08,72.57 C342.38,68.00 351.65,62.08 355.82,60.77 C358.25,60.05 363.93,59.83 367.47,60.44 C371.25,61.14 377.02,64.02 379.75,66.46 C381.87,68.41 385.25,74.16 386.55,78.15 C387.25,80.36 388.25,87.30 388.24,90.59 C388.18,96.61 385.66,110.38 383.92,115.87 C381.48,123.46 376.09,134.41 372.77,139.37 C369.99,143.51 362.90,151.86 355.99,159.11 C344.16,171.11 331.57,181.32 331.33,181.43 C330.52,181.79 328.96,181.98 328.27,181.92" fill="none" stroke="rgb(0, 0, 0)" stroke-width="7.61" stroke-opacity="1.00" stroke-linejoin="round"/>
<path d="M217.05,164.37 C214.97,158.09 211.42,147.62 208.50,141.24 C207.05,137.93 198.28,115.04 196.94,111.96 C194.63,106.70 184.80,91.83 182.78,89.00 C176.63,80.61 169.06,70.93 164.75,67.24 C161.23,64.26 155.60,60.72 152.17,59.68 C148.24,58.52 141.46,57.89 137.25,58.42 C135.10,58.71 127.52,60.48 124.47,62.10 C121.62,63.65 116.89,68.16 115.67,70.12 C114.53,71.97 112.08,78.48 111.62,81.02 C111.35,82.61 111.10,89.99 111.25,91.51 C111.52,94.02 113.54,101.86 115.20,105.77 C116.17,108.04 119.78,114.75 121.69,117.81 C124.87,122.86 131.15,130.22 131.84,131.03" fill="none" stroke="rgb(0, 0, 0)" stroke-width="7.61" stroke-opacity="1.00" stroke-linejoin="round"/>
<path d="M125.44,120.72 C125.15,120.15 124.86,119.57 124.57,119.00 C124.57,119.00 124.56,118.99 124.57,118.99 C124.57,119.00 124.44,119.03 124.53,119.24 C127.06,124.44 135.00,133.28 143.27,141.68 C155.65,153.80 178.09,175.69 180.29,177.08 C180.53,177.23 180.77,177.29 181.01,177.27" fill="none" stroke="rgb(0, 0, 0)" stroke-width="7.61" stroke-opacity="1.00" stroke-linejoin="round"/>
<path d="M329.21,181.62 C329.50,187.17 329.60,192.42 329.31,197.02 C329.28,197.42 327.94,214.44 327.81,221.25 C327.81,222.42 328.50,224.73 329.61,227.34 C329.84,227.88 330.32,228.95 331.03,230.54" fill="none" stroke="rgb(0, 0, 0)" stroke-width="7.61" stroke-opacity="1.00" stroke-linejoin="round"/>
<path d="M299.99,157.07 C300.15,157.00 299.66,156.83 297.38,156.19 C285.78,152.97 277.49,151.12 269.36,149.90 C255.47,147.94 233.72,147.46 229.29,147.71 C226.15,147.90 215.94,151.11 214.99,151.41" fill="none" stroke="rgb(0, 0, 0)" stroke-width="7.61" stroke-opacity="1.00" stroke-linejoin="round"/>
<path d="M224.86,147.89 C223.47,148.26 222.57,148.52 222.14,148.65 C220.32,149.22 218.09,150.49 216.78,151.61 C216.55,151.82 216.42,152.00 216.38,152.15 C216.38,152.15 216.91,151.44 216.91,151.44" fill="none" stroke="rgb(0, 0, 0)" stroke-width="7.61" stroke-opacity="1.00" stroke-linejoin="round"/>
<path d="M221.11,148.34 C221.11,148.34 221.60,148.46 221.60,148.46 C219.89,148.78 217.75,149.38 216.16,150.07 C215.75,150.25 215.11,150.57 214.25,151.02" fill="none" stroke="rgb(0, 0, 0)" stroke-width="7.61" stroke-opacity="1.00" stroke-linejoin="round"/>
<path d="M163.23,272.19 C163.23,272.19 163.10,272.22 163.10,272.22 C162.69,272.14 162.21,271.75 160.88,270.35 C157.89,267.16 155.80,263.94 155.09,260.89 C153.93,255.59 154.33,248.79 155.04,245.88 C155.18,245.33 155.45,244.43 155.85,243.17" fill="none" stroke="rgb(0, 0, 0)" stroke-width="7.61" stroke-opacity="1.00" stroke-linejoin="round"/>
<path d="M288.69,155.73 C286.38,154.24 280.72,150.58 277.37,148.39 C267.25,141.75 259.44,136.85 252.71,133.27 C245.45,129.50 232.11,123.69 226.76,121.76 C213.25,116.92 200.90,114.60 199.93,114.45" fill="none" stroke="rgb(0, 0, 0)" stroke-width="7.61" stroke-opacity="1.00" stroke-linejoin="round"/>
<path d="M122.19,120.10 C122.19,120.10 122.02,119.89 122.02,119.89 C118.26,119.91 109.78,119.98 108.65,120.22 C108.39,120.28 90.95,126.64 85.96,129.19 C82.96,130.74 76.90,134.86 74.06,137.22 C69.90,140.73 60.65,152.07 58.13,156.99 C54.64,163.83 52.15,170.70 50.18,180.01 C48.26,189.18 47.01,218.46 47.05,219.07 C47.13,219.95 48.01,226.37 48.17,227.53" fill="none" stroke="rgb(0, 0, 0)" stroke-width="7.61" stroke-opacity="1.00" stroke-linejoin="round"/>
<path d="M47.96,216.50 C47.96,217.36 48.80,222.59 49.67,226.15 C51.43,233.34 53.28,248.83 55.06,255.15 C56.19,259.12 58.19,264.38 59.80,267.05 C61.60,270.00 64.61,273.40 66.15,274.26 C69.41,276.01 74.13,276.25 76.39,275.95 C77.80,275.74 80.68,274.78 82.09,273.98 C83.37,273.23 85.35,271.00 85.63,270.05 C85.83,269.20 85.54,266.76 85.17,266.03 C85.00,265.73 84.58,265.09 83.90,264.11" fill="none" stroke="rgb(0, 0, 0)" stroke-width="7.61" stroke-opacity="1.00" stroke-linejoin="round"/>
<path d="M77.81,260.48 C78.99,262.32 82.32,264.49 87.20,266.68 C93.72,269.36 103.55,273.32 112.78,275.96 C122.30,278.59 131.68,280.29 142.51,281.64 C150.04,282.48 159.56,283.54 160.13,283.57 C160.65,283.60 161.81,283.64 163.62,283.69" fill="none" stroke="rgb(0, 0, 0)" stroke-width="7.61" stroke-opacity="1.00" stroke-linejoin="round"/>
<path d="M164.53,284.64 C164.53,284.64 165.26,283.92 165.26,283.92" fill="none" stroke="rgb(0, 0, 0)" stroke-width="7.61" stroke-opacity="1.00" stroke-linejoin="round"/>
<path d="M164.53,284.64 C164.53,284.64 165.54,284.12 165.54,284.12 C168.05,287.07 171.18,292.26 172.63,294.14 C174.31,296.31 180.03,301.97 182.68,303.52 C185.28,305.01 192.21,306.73 194.63,306.89 C197.15,307.04 203.31,306.29 207.01,304.91 C208.06,304.52 211.82,302.96 213.58,302.34 C213.95,302.21 214.28,302.11 214.57,302.04" fill="none" stroke="rgb(0, 0, 0)" stroke-width="7.61" stroke-opacity="1.00" stroke-linejoin="round"/>
<path d="M166.80,285.86 C166.80,285.86 168.93,285.78 168.93,285.78 C164.60,285.78 162.22,285.58 160.78,285.29 C160.44,285.22 160.06,285.10 159.66,284.94" fill="none" stroke="rgb(0, 0, 0)" stroke-width="7.61" stroke-opacity="1.00" stroke-linejoin="round"/>
<path d="M262.02,306.21 C262.02,306.21 254.94,305.13 254.94,305.13 C254.94,305.13 253.17,304.66 253.17,304.66" fill="none" stroke="rgb(0, 0, 0)" stroke-width="7.61" stroke-opacity="1.00" stroke-linejoin="round"/>
<path d="M165.61,283.83 C164.29,283.75 163.43,283.67 163.03,283.62 C162.36,283.52 158.02,282.24 156.89,281.90" fill="none" stroke="rgb(0, 0, 0)" stroke-width="7.61" stroke-opacity="1.00" stroke-linejoin="round"/>
<path d="M83.83,133.03 C83.86,132.31 85.11,130.05 85.50,129.13 C86.15,127.48 85.15,122.36 83.20,120.25 C81.32,118.25 74.99,113.87 72.07,112.24 C69.41,110.80 62.77,109.34 59.03,109.52 C55.75,109.70 49.69,111.32 47.74,112.18 C43.09,114.27 33.00,122.97 29.41,127.85 C27.59,130.38 24.84,136.60 24.18,139.94 C23.63,143.01 24.19,149.27 25.13,151.98 C26.07,154.56 28.94,158.66 31.17,160.64 C33.31,162.50 37.78,164.95 39.75,165.66 C45.01,167.50 49.90,167.31 49.97,167.31" fill="none" stroke="rgb(0, 0, 0)" stroke-width="7.61" stroke-opacity="1.00" stroke-linejoin="round"/>
<path d="M258.64,252.97 C258.59,253.04 259.23,253.00 260.75,252.81 C262.60,252.57 272.87,251.43 274.67,251.79 C274.18,253.72 271.42,256.47 268.93,258.08 C267.59,258.89 264.71,260.06 263.77,259.82 C262.01,259.33 259.56,254.78 259.23,253.46 C259.21,253.37 259.13,253.15 258.99,252.79" fill="none" stroke="rgb(0, 0, 0)" stroke-width="7.61" stroke-opacity="1.00" stroke-linejoin="round"/>
<path d="M275.68,305.64 C276.38,305.70 276.93,305.77 283.58,306.82 C287.57,307.41 290.32,307.18 293.24,306.15 C296.28,305.02 308.16,296.64 308.63,296.27 C308.96,296.01 309.51,295.55 310.26,294.89" fill="none" stroke="rgb(0, 0, 0)" stroke-width="7.61" stroke-opacity="1.00" stroke-linejoin="round"/>
<path d="M292.69,302.99 C291.47,303.44 290.73,303.71 290.48,303.81 C290.23,303.91 290.10,303.99 290.10,304.03 C290.06,304.05 291.38,303.83 292.10,303.52 C297.34,301.29 306.87,295.48 307.79,295.09" fill="none" stroke="rgb(0, 0, 0)" stroke-width="7.61" stroke-opacity="1.00" stroke-linejoin="round"/>
<path d="M310.81,292.12 C310.81,292.12 310.87,292.21 310.87,292.21 C309.86,293.26 307.09,296.17 306.42,296.72 C305.98,297.07 305.16,297.63 303.96,298.40" fill="none" stroke="rgb(0, 0, 0)" stroke-width="7.61" stroke-opacity="1.00" stroke-linejoin="round"/>
<path d="M176.44,174.62 C176.37,174.78 174.66,176.74 171.44,181.46 C169.23,184.84 167.24,190.14 166.49,195.33 C166.15,197.79 166.18,200.96 166.11,201.99 C166.07,202.67 165.39,206.04 165.13,207.30" fill="none" stroke="rgb(0, 0, 0)" stroke-width="7.61" stroke-opacity="1.00" stroke-linejoin="round"/>
<path d="M312.39,152.57 C313.54,150.17 318.47,135.27 320.73,128.35 C321.87,124.76 325.24,119.13 327.13,116.02 C332.34,107.78 340.57,97.06 344.61,93.02 C346.99,90.66 352.27,86.90 354.32,86.00 C355.72,85.40 360.35,83.85 361.52,83.67 C363.13,83.45 365.97,83.85 367.12,84.49 C369.27,85.78 372.22,91.57 372.88,93.94 C373.44,96.10 373.57,101.19 373.17,103.62 C372.27,108.87 366.79,120.32 361.64,128.21 C357.33,134.65 349.41,146.36 344.63,151.32 C342.20,153.78 336.38,159.53 334.23,160.80 C331.31,162.48 324.46,163.40 321.74,162.79 C320.89,162.58 317.14,160.87 316.34,160.31 C314.92,159.27 312.83,153.71 312.74,151.70" fill="none" stroke="rgb(0, 0, 0)" stroke-width="7.61" stroke-opacity="1.00" stroke-linejoin="round"/>
<path d="M187.95,167.44 C182.23,161.51 174.99,156.05 169.48,150.37 C166.26,147.03 145.26,122.91 141.98,117.85 C140.07,114.87 137.71,109.65 136.13,105.39 C134.95,102.12 134.16,98.16 134.02,94.62 C133.93,91.51 135.05,86.74 136.32,85.26 C137.63,83.81 141.60,82.61 144.67,82.69 C147.57,82.80 151.30,83.71 154.56,85.36 C158.32,87.29 163.37,91.51 165.33,93.64 C169.45,98.18 179.05,113.28 180.50,115.79 C183.44,120.91 197.22,152.23 197.34,152.66 C197.94,154.76 197.91,163.92 197.70,164.10 C196.06,165.34 191.77,165.71 190.92,165.81 C190.68,165.83 190.40,165.87 190.09,165.92" fill="none" stroke="rgb(0, 0, 0)" stroke-width="7.61" stroke-opacity="1.00" stroke-linejoin="round"/>
<path d="M188.02,165.17 C190.45,166.01 191.41,166.29 191.76,166.17 C192.10,166.05 192.46,165.93 192.85,165.80" fill="none" stroke="rgb(0, 0, 0)" stroke-width="7.61" stroke-opacity="1.00" stroke-linejoin="round"/>
<path d="M265.01,255.15 C265.01,255.15 264.10,254.64 264.10,254.64 C264.10,254.64 270.35,253.36 270.35,253.36 C270.35,253.36 264.06,256.05 264.06,256.05 C265.49,255.92 266.49,255.81 267.05,255.73 C267.62,255.65 268.55,255.47 269.84,255.20" fill="none" stroke="rgb(0, 0, 0)" stroke-width="7.61" stroke-opacity="1.00" stroke-linejoin="round"/>
</g>
</svg>
