<?xml version="1.0" encoding="UTF-8" standalone="no"?>
<!DOCTYPE svg PUBLIC "-//W3C//DTD SVG 1.1//EN" "http://www.w3.org/Graphics/SVG/1.1/DTD/svg11.dtd">
<svg width="96.00" height="96.00" viewBox="0.00 0.00 400.00 400.00" xmlns="http://www.w3.org/2000/svg" xmlns:xlink="http://www.w3.org/1999/xlink">
<g stroke-linecap="round" id="Layer_2">
<path d="M83.12,104.57 C82.49,103.94 81.21,103.67 80.21,104.19 C79.52,104.56 78.40,106.40 78.15,107.40 C77.90,108.60 78.28,110.80 78.91,111.61 C79.46,112.26 81.35,112.75 82.35,112.61 C84.33,112.25 86.84,109.09 86.67,107.44 C86.42,105.78 83.51,103.19 81.67,103.66 C81.45,103.72 81.13,103.88 80.69,104.12" fill="none" stroke="rgb(0, 0, 0)" stroke-width="7.00" stroke-opacity="1.00" stroke-linejoin="round"/>
<path d="M135.18,99.13 C135.18,99.13 134.27,99.18 134.27,99.18 C132.73,100.32 131.38,104.47 132.45,105.81 C133.18,106.65 135.37,107.40 136.85,107.36 C138.19,107.30 140.41,106.58 141.07,105.96 C141.76,105.24 142.13,103.56 141.86,102.59 C141.35,100.96 138.47,98.32 137.03,98.11 C136.47,98.05 134.67,98.25 134.24,98.54 C134.01,98.71 133.50,99.18 132.74,99.96" fill="none" stroke="rgb(0, 0, 0)" stroke-width="7.00" stroke-opacity="1.00" stroke-linejoin="round"/>
<path d="M107.87,131.56 C107.53,131.49 106.05,131.09 105.18,130.75 C103.31,130.01 101.54,128.76 100.91,127.70 C100.52,126.98 100.51,125.74 100.99,125.37 C102.61,124.25 109.41,123.81 111.69,124.59 C112.87,125.02 114.23,126.17 114.46,126.92 C114.63,127.61 114.20,129.06 113.59,129.73 C112.80,130.57 110.15,131.71 108.25,132.11 C107.83,132.19 107.44,132.20 107.06,132.14" fill="none" stroke="rgb(0, 0, 0)" stroke-width="7.00" stroke-opacity="1.00" stroke-linejoin="round"/>
<path d="M90.77,131.49 C89.76,131.34 88.72,131.75 87.81,132.97 C86.77,134.43 85.64,137.47 85.38,139.65 C85.15,141.75 85.52,144.96 86.10,146.66 C86.59,147.98 89.54,150.14 90.97,150.24 C92.73,150.32 95.35,149.67 96.99,148.67 C97.72,148.22 103.51,143.98 105.21,144.07 C106.92,144.21 115.75,147.83 117.40,148.28 C118.82,148.66 124.54,148.88 127.85,147.74 C130.67,146.74 137.89,142.32 139.98,140.15 C142.04,137.95 143.63,133.21 143.36,130.98 C143.09,129.06 140.88,124.83 140.03,124.13" fill="none" stroke="rgb(0, 0, 0)" stroke-width="7.00" stroke-opacity="1.00" stroke-linejoin="round"/>
<path d="M80.32,92.15 C79.15,91.76 74.33,93.12 73.41,94.73 C73.12,95.29 73.37,97.06 73.94,97.52 C75.06,98.35 77.86,98.34 80.19,97.48 C84.18,95.96 85.42,94.61 85.55,93.96 C84.58,92.65 80.11,92.03 78.13,92.21 C77.82,92.24 77.48,92.30 77.11,92.38" fill="none" stroke="rgb(0, 0, 0)" stroke-width="7.00" stroke-opacity="1.00" stroke-linejoin="round"/>
<path d="M136.74,86.93 C136.74,86.93 136.16,86.21 136.16,86.21 C134.99,86.08 133.66,86.09 133.06,86.37 C131.83,86.97 132.01,89.47 132.95,90.30 C136.10,92.70 142.24,89.21 142.56,88.88 C142.11,87.81 141.47,87.08 140.20,86.79 C139.17,86.56 137.95,86.35 136.53,86.18 C136.06,86.12 135.51,86.09 134.90,86.07" fill="none" stroke="rgb(0, 0, 0)" stroke-width="7.00" stroke-opacity="1.00" stroke-linejoin="round"/>
<path d="M77.21,81.44 C81.86,78.97 93.96,76.73 104.91,75.14 C121.08,72.86 133.93,74.06 134.55,74.20 C134.79,74.26 135.17,74.38 135.70,74.57" fill="none" stroke="rgb(0, 0, 0)" stroke-width="7.00" stroke-opacity="1.00" stroke-linejoin="round"/>
<path d="M76.95,81.24 C76.60,81.07 76.24,80.92 76.09,80.86 C71.46,79.01 58.34,75.92 52.06,74.75 C46.66,73.76 35.38,72.86 28.86,73.25 C28.67,73.26 28.55,73.26 28.48,73.26" fill="none" stroke="rgb(0, 0, 0)" stroke-width="7.00" stroke-opacity="1.00" stroke-linejoin="round"/>
<path d="M28.22,73.73 C28.22,73.73 28.01,73.62 28.01,73.62 C28.13,79.76 31.51,93.86 33.84,100.39 C36.46,107.67 41.34,115.23 47.42,122.63 C48.41,123.79 49.85,125.28 50.68,125.94 C51.48,126.55 53.61,127.94 55.08,128.85" fill="none" stroke="rgb(0, 0, 0)" stroke-width="7.00" stroke-opacity="1.00" stroke-linejoin="round"/>
<path d="M51.15,127.51 C51.15,127.51 51.49,127.45 51.49,127.45 C52.87,128.85 53.53,131.79 53.72,134.97 C53.96,139.48 53.80,154.90 54.07,157.77 C54.40,160.93 56.38,166.08 58.37,168.69 C61.72,172.98 67.69,177.12 68.93,177.55 C69.18,177.64 72.61,178.67 73.78,179.03" fill="none" stroke="rgb(0, 0, 0)" stroke-width="7.00" stroke-opacity="1.00" stroke-linejoin="round"/>
<path d="M67.34,176.34 C68.20,176.46 72.36,178.19 74.94,178.70 C76.21,178.95 77.59,179.12 78.94,179.23 C78.94,179.23 67.13,176.90 67.13,176.90 C68.37,177.37 73.92,178.64 75.03,178.74 C75.63,178.80 78.32,178.43 79.82,178.21" fill="none" stroke="rgb(0, 0, 0)" stroke-width="7.00" stroke-opacity="1.00" stroke-linejoin="round"/>
<path d="M134.46,74.31 C134.88,73.52 135.00,73.32 135.54,72.85 C140.34,68.65 151.15,62.71 159.94,58.66 C163.80,56.89 168.85,55.33 170.26,55.11 C170.46,55.08 170.96,55.01 171.75,54.91" fill="none" stroke="rgb(0, 0, 0)" stroke-width="7.00" stroke-opacity="1.00" stroke-linejoin="round"/>
<path d="M171.17,54.64 C171.19,54.69 171.23,54.78 171.27,54.91 C172.96,59.78 175.21,72.28 175.83,80.30 C176.29,86.33 175.96,96.94 174.82,101.54 C174.57,102.56 173.49,106.27 172.88,108.33 C172.54,109.48 172.20,110.63 171.86,111.78" fill="none" stroke="rgb(0, 0, 0)" stroke-width="7.00" stroke-opacity="1.00" stroke-linejoin="round"/>
<path d="M173.22,105.10 C173.22,105.10 173.22,105.04 173.22,105.04 C173.12,105.99 172.84,108.61 172.77,109.14 C172.72,109.48 172.62,110.06 172.48,110.86" fill="none" stroke="rgb(0, 0, 0)" stroke-width="7.00" stroke-opacity="1.00" stroke-linejoin="round"/>
<path d="M173.35,106.81 C173.31,107.68 173.27,108.55 173.23,109.42 C173.23,109.47 173.21,109.62 173.21,109.57 C173.21,109.56 173.21,109.51 173.21,109.43 C173.20,108.98 173.14,108.73 173.00,108.53 C173.00,108.53 172.79,108.66 172.79,108.66 C172.69,109.24 172.70,109.78 172.84,110.28 C172.86,110.33 172.92,110.45 172.92,110.51" fill="none" stroke="rgb(0, 0, 0)" stroke-width="7.00" stroke-opacity="1.00" stroke-linejoin="round"/>
<path d="M172.80,108.98 C172.80,108.98 172.90,110.30 172.90,110.30 C172.90,110.30 172.80,110.36 172.80,110.36 C172.80,110.36 172.90,110.31 172.90,110.31" fill="none" stroke="rgb(0, 0, 0)" stroke-width="7.00" stroke-opacity="1.00" stroke-linejoin="round"/>
<path d="M172.80,108.98 C172.80,108.98 172.43,108.60 172.43,108.60 C172.44,108.64 172.44,108.68 172.43,108.71 C172.41,108.75 172.38,108.83 172.31,108.96 C172.31,108.96 172.37,108.82 172.37,108.82" fill="none" stroke="rgb(0, 0, 0)" stroke-width="7.00" stroke-opacity="1.00" stroke-linejoin="round"/>
<path d="M173.60,105.99 C173.84,106.20 174.01,106.62 174.47,108.44 C175.66,113.02 176.64,115.53 178.23,118.70 C180.67,123.49 182.94,127.41 184.06,128.51 C184.33,128.78 185.21,129.61 186.70,131.00" fill="none" stroke="rgb(0, 0, 0)" stroke-width="7.00" stroke-opacity="1.00" stroke-linejoin="round"/>
<path d="M183.42,129.50 C183.42,129.50 183.43,129.50 183.43,129.50 C184.93,130.55 189.91,132.61 193.35,133.61 C198.79,135.16 211.95,135.76 218.02,134.93 C218.56,134.85 240.62,131.28 245.31,131.01 C251.26,130.69 263.81,131.05 270.24,132.53 C271.68,132.87 280.51,135.23 283.15,136.26 C287.64,138.05 294.14,143.55 294.79,144.15 C295.12,144.46 295.88,145.19 297.05,146.32" fill="none" stroke="rgb(0, 0, 0)" stroke-width="7.00" stroke-opacity="1.00" stroke-linejoin="round"/>
<path d="M69.25,179.73 C69.25,179.73 68.84,179.33 68.84,179.33 C71.75,180.27 75.45,180.76 76.71,180.93 C77.48,181.03 78.24,181.14 79.01,181.24" fill="none" stroke="rgb(0, 0, 0)" stroke-width="7.00" stroke-opacity="1.00" stroke-linejoin="round"/>
<path d="M68.45,179.13 C69.37,179.16 71.84,179.26 72.71,179.32 C74.72,179.53 77.52,179.81 79.38,179.89 C79.85,179.91 80.31,179.93 80.78,179.94" fill="none" stroke="rgb(0, 0, 0)" stroke-width="7.00" stroke-opacity="1.00" stroke-linejoin="round"/>
<path d="M78.51,179.57 C78.37,179.41 78.23,179.25 78.09,179.10 C78.08,179.09 78.07,179.08 78.07,179.09 C78.98,180.73 80.04,182.34 80.40,182.89 C80.55,183.12 80.77,183.48 81.05,183.97" fill="none" stroke="rgb(0, 0, 0)" stroke-width="7.00" stroke-opacity="1.00" stroke-linejoin="round"/>
<path d="M77.47,180.35 C77.17,180.03 76.98,179.84 76.93,179.77 C76.87,179.70 76.85,179.66 76.87,179.65 C78.34,181.42 79.29,182.68 80.38,184.35 C81.10,185.46 81.54,186.17 81.71,186.47 C81.85,186.75 82.03,187.17 82.23,187.74" fill="none" stroke="rgb(0, 0, 0)" stroke-width="7.00" stroke-opacity="1.00" stroke-linejoin="round"/>
<path d="M78.02,180.95 C78.02,180.95 77.86,180.82 77.86,180.82 C79.41,183.18 83.09,188.75 83.64,190.49 C83.76,190.88 83.85,191.47 83.91,192.28" fill="none" stroke="rgb(0, 0, 0)" stroke-width="7.00" stroke-opacity="1.00" stroke-linejoin="round"/>
<path d="M80.71,184.24 C80.71,184.24 80.89,184.31 80.89,184.31 C81.55,185.90 82.32,189.79 83.10,195.85 C83.61,199.68 82.78,206.43 82.31,209.59 C80.96,218.77 77.56,235.56 77.33,236.86 C76.41,242.08 76.49,258.34 76.58,259.75 C76.83,263.76 83.32,312.29 84.73,320.45 C84.99,321.88 85.53,324.51 85.99,326.49 C86.12,327.06 86.31,327.86 86.57,328.89" fill="none" stroke="rgb(0, 0, 0)" stroke-width="7.00" stroke-opacity="1.00" stroke-linejoin="round"/>
<path d="M85.10,321.71 C85.10,321.71 85.11,321.62 85.11,321.62 C85.31,322.94 86.95,330.97 86.94,331.08 C86.90,331.47 84.50,335.20 83.77,336.89 C83.10,338.44 84.82,340.67 86.70,341.62 C87.72,342.13 89.72,342.83 90.80,343.04 C92.30,343.31 94.34,343.32 96.19,343.09 C96.59,343.03 97.32,342.92 98.38,342.75" fill="none" stroke="rgb(0, 0, 0)" stroke-width="7.00" stroke-opacity="1.00" stroke-linejoin="round"/>
<path d="M94.34,342.74 C94.67,342.70 95.00,342.67 95.33,342.66 C98.22,342.51 105.02,340.53 106.48,339.29 C107.82,338.10 110.02,333.30 110.70,330.68 C111.86,325.95 109.03,283.39 108.56,275.64 C108.48,274.42 108.41,273.20 108.33,271.98 C108.33,271.93 108.34,271.79 108.34,271.83" fill="none" stroke="rgb(0, 0, 0)" stroke-width="7.00" stroke-opacity="1.00" stroke-linejoin="round"/>
<path d="M107.02,273.60 C107.02,273.60 107.14,273.58 107.14,273.58 C108.28,272.15 112.37,270.13 115.59,269.34 C121.39,267.97 135.18,267.92 140.72,268.79 C144.58,269.43 147.60,270.64 149.05,271.49" fill="none" stroke="rgb(0, 0, 0)" stroke-width="7.00" stroke-opacity="1.00" stroke-linejoin="round"/>
<path d="M148.74,271.35 C148.95,271.49 149.34,272.40 149.76,273.94 C150.67,277.33 150.86,292.44 150.94,299.49 C150.88,308.80 149.92,320.62 149.40,326.69 C149.21,329.13 149.07,333.90 147.58,336.49 C145.99,339.30 145.44,341.27 146.01,342.63 C146.66,344.00 152.14,344.89 156.21,344.48 C162.77,343.79 171.77,341.23 172.78,340.25 C173.04,339.99 173.38,339.45 173.80,338.64" fill="none" stroke="rgb(0, 0, 0)" stroke-width="7.00" stroke-opacity="1.00" stroke-linejoin="round"/>
<path d="M170.42,340.95 C172.26,338.66 174.17,331.81 174.77,328.81 C175.83,322.71 180.20,303.00 180.83,298.70 C181.04,297.26 181.90,288.75 181.83,284.99 C181.81,283.96 181.25,270.59 181.31,270.16 C181.37,269.74 181.58,269.00 181.94,267.93" fill="none" stroke="rgb(0, 0, 0)" stroke-width="7.00" stroke-opacity="1.00" stroke-linejoin="round"/>
<path d="M180.65,268.62 C180.43,268.41 180.30,268.35 180.34,268.35 C182.86,268.20 193.86,266.16 206.83,265.02 C222.49,263.46 257.23,260.51 264.56,259.94 C270.24,259.50 271.09,259.48 272.89,259.55" fill="none" stroke="rgb(0, 0, 0)" stroke-width="7.00" stroke-opacity="1.00" stroke-linejoin="round"/>
<path d="M271.93,259.45 C273.55,259.72 275.75,263.29 277.30,267.09 C279.76,273.29 282.01,284.17 282.99,295.66 C283.46,301.83 283.65,307.40 283.43,310.80 C283.20,314.06 282.29,318.13 281.04,319.67 C280.05,320.85 275.29,325.25 274.87,326.24 C274.60,326.99 275.06,328.54 275.80,329.25 C276.67,330.04 278.13,330.90 279.14,331.24 C280.44,331.64 284.82,331.72 286.19,331.74" fill="none" stroke="rgb(0, 0, 0)" stroke-width="7.00" stroke-opacity="1.00" stroke-linejoin="round"/>
<path d="M277.25,329.73 C277.25,329.73 277.20,330.45 277.20,330.45 C279.49,331.18 281.38,331.56 282.87,331.36 C283.65,331.24 301.04,326.65 301.15,326.62 C301.77,326.44 302.48,326.21 303.27,325.92 C303.47,325.85 303.49,325.80 303.60,325.77 C303.63,325.85 303.69,326.06 303.70,326.07 C303.71,326.10 303.75,326.14 303.80,326.19 C304.12,325.86 304.36,325.56 304.53,325.30 C305.95,322.85 307.07,316.05 307.10,311.87 C307.02,298.92 307.21,297.19 309.70,284.53 C313.33,265.70 314.75,253.31 316.57,228.28 C317.22,220.74 318.38,206.58 318.38,201.71 C318.17,192.42 316.65,181.29 314.22,175.13 C313.96,174.49 313.75,174.00 313.59,173.66 C313.51,173.50 313.37,173.26 313.18,172.93" fill="none" stroke="rgb(0, 0, 0)" stroke-width="7.00" stroke-opacity="1.00" stroke-linejoin="round"/>
<path d="M258.83,260.38 C259.52,263.84 260.76,270.18 261.19,274.22 C262.03,282.42 262.62,298.82 262.23,303.64 C261.98,306.29 260.45,310.21 258.26,313.53 C256.32,316.49 254.54,321.56 255.00,322.68 C255.36,323.45 257.05,324.58 258.33,324.89 C258.95,325.03 262.66,325.49 264.00,325.65" fill="none" stroke="rgb(0, 0, 0)" stroke-width="7.00" stroke-opacity="1.00" stroke-linejoin="round"/>
<path d="M260.69,324.58 C260.69,324.58 260.29,324.64 260.29,324.64 C262.19,324.58 264.62,324.31 266.41,323.83 C267.40,323.56 277.17,320.40 277.49,320.15 C277.81,319.90 278.25,319.23 278.83,318.15" fill="none" stroke="rgb(0, 0, 0)" stroke-width="7.00" stroke-opacity="1.00" stroke-linejoin="round"/>
<path d="M282.82,307.66 C282.90,305.15 281.81,302.97 281.27,300.47 C281.22,300.21 281.18,299.98 281.16,299.78 C281.08,299.83 279.88,305.88 278.76,311.89 C278.37,313.93 277.62,317.28 277.19,318.97 C277.06,319.47 276.88,320.07 276.65,320.76" fill="none" stroke="rgb(0, 0, 0)" stroke-width="7.00" stroke-opacity="1.00" stroke-linejoin="round"/>
<path d="M293.33,143.28 C293.62,143.54 295.51,143.81 298.18,143.94 C300.88,144.04 306.84,142.60 310.75,140.89 C313.06,139.86 317.08,136.65 318.68,134.93 C322.02,131.26 325.71,121.73 326.57,116.54 C327.49,110.67 326.56,80.71 327.25,76.75 C327.68,74.41 329.82,67.86 330.79,65.78 C331.88,63.53 335.61,58.56 338.79,56.96 C340.49,56.14 347.60,53.86 350.69,53.30 C354.60,52.61 360.85,52.53 364.84,53.03 C367.85,53.43 372.62,54.55 374.03,55.12 C377.18,56.44 380.34,59.68 380.82,61.45 C381.05,62.48 380.82,64.37 380.25,65.20 C378.79,67.17 373.87,69.17 369.45,70.30 C368.29,70.59 358.73,73.20 356.26,74.43 C353.05,76.08 348.24,80.85 346.82,83.46 C345.32,86.29 343.73,92.53 343.53,96.35 C343.34,100.70 344.15,117.48 344.23,121.21 C344.32,130.37 343.90,141.03 343.11,145.02 C342.36,148.77 340.29,154.96 338.58,157.44 C337.22,159.36 332.41,163.79 328.95,165.78 C323.26,169.00 315.79,171.94 313.56,173.22 C313.37,173.32 313.29,173.35 313.30,173.31" fill="none" stroke="rgb(0, 0, 0)" stroke-width="7.00" stroke-opacity="1.00" stroke-linejoin="round"/>
<path d="M68.15,135.62 C64.13,136.14 60.73,136.97 57.49,138.01 C50.44,140.32 36.19,145.09 32.86,146.76 C31.20,147.62 27.30,149.67 26.68,150.18 C26.32,150.49 25.78,151.10 25.07,152.02" fill="none" stroke="rgb(0, 0, 0)" stroke-width="7.00" stroke-opacity="1.00" stroke-linejoin="round"/>
<path d="M68.24,144.55 C64.76,145.44 51.24,151.94 44.45,155.48 C41.01,157.36 34.52,160.98 31.47,162.72 C28.33,164.56 22.81,167.97 21.75,168.63" fill="none" stroke="rgb(0, 0, 0)" stroke-width="7.00" stroke-opacity="1.00" stroke-linejoin="round"/>
<path d="M68.52,158.00 C66.18,160.65 56.66,172.94 55.59,174.43 C54.57,175.87 53.40,177.99 52.75,179.46 C52.24,180.67 51.90,181.71 51.78,182.33" fill="none" stroke="rgb(0, 0, 0)" stroke-width="7.00" stroke-opacity="1.00" stroke-linejoin="round"/>
<path d="M154.92,120.37 C160.69,118.03 174.68,114.05 183.01,112.61 C186.62,112.02 194.55,110.76 196.96,110.54 C198.56,110.41 204.00,110.71 205.27,110.79" fill="none" stroke="rgb(0, 0, 0)" stroke-width="7.00" stroke-opacity="1.00" stroke-linejoin="round"/>
<path d="M159.47,128.08 C162.40,128.22 169.17,128.59 173.00,128.83 C182.38,129.53 196.80,132.27 202.03,134.37 C202.73,134.65 205.41,135.91 206.21,136.28" fill="none" stroke="rgb(0, 0, 0)" stroke-width="7.00" stroke-opacity="1.00" stroke-linejoin="round"/>
<path d="M158.07,138.45 C161.49,138.35 166.16,139.19 171.35,140.98 C175.11,142.27 182.37,144.74 185.86,145.91 C194.00,148.70 199.28,150.88 200.10,151.22" fill="none" stroke="rgb(0, 0, 0)" stroke-width="7.00" stroke-opacity="1.00" stroke-linejoin="round"/>
<path d="M334.24,63.65 C335.25,64.58 335.89,65.37 337.00,67.23 C342.95,77.04 345.95,81.30 347.37,83.28 C347.55,83.54 347.68,83.74 347.75,83.89" fill="none" stroke="rgb(0, 0, 0)" stroke-width="7.00" stroke-opacity="1.00" stroke-linejoin="round"/>
<path d="M32.82,78.68 C44.70,82.50 56.52,93.91 57.96,95.91 C58.98,97.34 60.74,100.18 61.79,101.99" fill="none" stroke="rgb(0, 0, 0)" stroke-width="7.00" stroke-opacity="1.00" stroke-linejoin="round"/>
<path d="M154.75,78.70 C154.75,78.70 153.50,79.53 153.50,79.53 C159.93,71.64 165.28,65.98 165.84,65.60 C166.24,65.34 167.22,64.77 168.81,63.89" fill="none" stroke="rgb(0, 0, 0)" stroke-width="7.00" stroke-opacity="1.00" stroke-linejoin="round"/>
<path d="M200.70,137.21 C200.70,137.20 200.70,137.24 200.70,137.25 C201.78,140.61 204.25,148.54 204.95,151.08 C206.09,155.31 207.16,179.54 207.40,181.28 C208.09,186.02 209.38,187.90 210.07,188.62 C211.46,188.72 213.97,185.23 215.20,182.51 C217.73,176.75 220.56,164.83 220.88,159.68 C220.99,157.89 221.22,148.35 221.30,144.62 C221.37,138.85 221.30,137.92 221.15,136.84 C221.15,136.84 221.17,136.97 221.17,136.97" fill="none" stroke="rgb(0, 0, 0)" stroke-width="7.00" stroke-opacity="1.00" stroke-linejoin="round"/>
<path d="M234.78,133.34 C235.28,135.02 240.96,148.27 242.07,153.74 C243.26,159.73 244.33,171.65 244.89,178.31 C245.11,180.19 245.97,182.38 246.85,183.40 C247.62,184.21 250.26,182.15 251.67,179.69 C253.66,176.15 255.75,171.09 256.89,166.97 C258.96,159.41 261.39,138.04 261.63,134.27 C261.68,133.61 261.76,132.56 261.88,131.15 C261.88,131.15 261.95,131.15 261.95,131.15" fill="none" stroke="rgb(0, 0, 0)" stroke-width="7.00" stroke-opacity="1.00" stroke-linejoin="round"/>
<path d="M107.17,184.40 C106.12,184.14 105.14,184.17 104.14,184.69 C101.60,186.05 98.29,189.66 96.55,192.76 C95.25,195.15 93.01,202.70 92.79,205.59 C92.33,212.39 94.22,217.58 94.93,219.28 C94.76,217.28 96.18,212.68 97.91,210.63 C99.38,208.93 101.77,207.45 101.76,207.92 C101.62,211.12 102.36,215.51 103.32,218.50 C104.65,222.49 108.28,228.58 110.51,231.15 C114.36,235.49 120.14,239.68 121.97,240.20 C123.25,240.57 126.95,241.05 129.48,241.32" fill="none" stroke="rgb(0, 0, 0)" stroke-width="7.00" stroke-opacity="1.00" stroke-linejoin="round"/>
<path d="M130.73,242.78 C130.73,242.78 130.13,242.59 130.13,242.59 C129.43,240.96 129.19,240.06 129.40,239.30 C130.26,236.30 131.87,228.44 132.61,225.88 C133.46,226.21 135.22,227.84 136.46,229.04 C137.26,229.68 138.89,230.05 139.52,229.63 C140.62,228.84 142.33,226.99 142.90,225.90 C144.03,223.63 145.72,215.13 145.80,213.79 C145.85,212.76 145.41,204.33 145.02,201.82 C144.65,199.41 143.37,194.64 143.12,193.69" fill="none" stroke="rgb(0, 0, 0)" stroke-width="7.00" stroke-opacity="1.00" stroke-linejoin="round"/>
</g>
</svg>
