<?xml version="1.0" encoding="UTF-8" standalone="no"?>
<!DOCTYPE svg PUBLIC "-//W3C//DTD SVG 1.1//EN" "http://www.w3.org/Graphics/SVG/1.1/DTD/svg11.dtd">
<svg width="96.00" height="96.00" viewBox="0.00 0.00 400.00 400.00" xmlns="http://www.w3.org/2000/svg" xmlns:xlink="http://www.w3.org/1999/xlink">
<g stroke-linecap="round" id="Layer_2">
<path d="M245.51,72.06 C244.19,71.87 243.35,71.82 242.98,71.92 C242.25,72.12 240.32,75.04 239.95,76.19 C239.49,77.79 239.89,80.43 240.80,81.09 C241.77,81.73 244.97,81.94 246.40,81.47 C247.90,80.93 249.76,79.22 250.17,78.12 C250.40,77.37 250.33,75.41 249.85,74.85 C247.99,72.80 244.06,71.74 243.14,71.66 C242.95,71.65 242.73,71.66 242.48,71.69" fill="none" stroke="rgb(0, 0, 0)" stroke-width="8.86" stroke-opacity="1.00" stroke-linejoin="round"/>
<path d="M193.56,85.58 C192.21,84.91 190.21,85.31 188.78,86.78 C188.34,87.24 187.16,90.33 187.10,90.70 C186.98,91.88 187.81,93.83 188.77,94.29 C189.92,94.79 192.88,94.27 194.59,93.33 C195.87,92.59 197.12,90.95 197.47,89.75 C197.67,88.82 196.30,86.00 195.08,84.97 C194.26,84.29 193.36,83.97 192.38,84.02 C192.02,84.04 191.49,84.26 190.80,84.68" fill="none" stroke="rgb(0, 0, 0)" stroke-width="8.86" stroke-opacity="1.00" stroke-linejoin="round"/>
<path d="M212.20,128.91 C214.68,127.77 219.93,125.33 221.77,124.60 C223.14,124.05 231.47,121.07 235.86,119.90 C238.11,119.32 241.07,119.06 242.77,119.28 C243.88,119.46 246.12,120.54 246.98,121.18 C247.88,121.92 248.82,123.61 248.83,124.67 C248.80,126.61 245.95,130.47 243.78,132.33 C242.02,133.78 238.28,135.69 234.44,137.23 C231.20,138.49 225.16,139.84 222.63,139.50 C220.19,139.12 215.18,136.09 212.83,133.78 C211.68,132.60 210.08,129.92 210.16,128.94 C210.22,128.21 210.80,127.70 211.90,127.40 C212.37,127.28 213.46,127.19 215.16,127.12" fill="none" stroke="rgb(0, 0, 0)" stroke-width="8.86" stroke-opacity="1.00" stroke-linejoin="round"/>
<path d="M217.79,128.07 C217.79,128.07 217.17,128.07 217.17,128.07" fill="none" stroke="rgb(0, 0, 0)" stroke-width="8.86" stroke-opacity="1.00" stroke-linejoin="round"/>
<path d="M211.97,126.53 C211.97,126.53 211.84,126.22 211.84,126.22 C211.84,126.22 211.84,126.14 211.84,126.14 C212.06,125.88 217.91,123.27 221.29,122.05 C223.75,121.17 237.01,119.05 238.59,118.80 C239.19,118.72 239.78,118.64 240.38,118.55" fill="none" stroke="rgb(0, 0, 0)" stroke-width="8.86" stroke-opacity="1.00" stroke-linejoin="round"/>
<path d="M234.63,119.70 C234.63,119.70 242.11,118.87 242.11,118.87 C237.94,119.18 224.66,122.15 219.94,124.52 C217.13,125.96 213.18,128.87 213.25,129.97 C215.72,129.90 221.59,127.20 223.03,126.43 C226.11,124.67 229.65,122.67 230.51,122.32 C230.89,123.97 221.16,132.47 218.28,134.95 C218.28,134.95 236.98,123.63 236.98,123.63 C236.98,123.63 223.95,136.46 223.95,136.46 C223.95,136.46 242.07,126.14 242.07,126.14 C242.07,126.14 236.88,130.64 236.88,130.64 C239.28,128.89 243.40,125.11 243.59,124.09 C243.65,123.78 243.54,123.15 243.28,122.20 C240.44,121.28 236.65,121.65 233.82,122.94 C233.82,122.94 241.74,121.16 241.74,121.16 C241.82,121.36 241.87,121.49 241.89,121.56 C241.92,121.63 241.95,121.74 241.99,121.88" fill="none" stroke="rgb(0, 0, 0)" stroke-width="8.86" stroke-opacity="1.00" stroke-linejoin="round"/>
<path d="M176.50,133.39 C176.50,133.39 173.67,133.11 173.67,133.11" fill="none" stroke="rgb(0, 0, 0)" stroke-width="8.86" stroke-opacity="1.00" stroke-linejoin="round"/>
<path d="M171.70,144.81 C171.70,144.81 170.74,143.30 170.74,143.30 C174.83,144.04 180.24,145.72 182.14,147.13 C185.32,149.56 198.95,166.50 200.35,167.71 C203.12,170.08 207.17,172.13 209.08,172.67 C213.30,173.84 227.88,174.25 233.20,173.93 C241.08,173.43 251.85,170.93 256.52,168.52 C258.11,167.69 261.91,164.88 263.46,163.17 C266.84,159.37 271.53,149.53 273.63,142.20 C274.91,137.67 278.01,118.35 278.37,117.10 C279.39,113.62 282.82,109.31 284.24,107.75 C284.80,107.15 285.36,106.54 285.92,105.93" fill="none" stroke="rgb(0, 0, 0)" stroke-width="8.86" stroke-opacity="1.00" stroke-linejoin="round"/>
<path d="M205.89,144.27 C205.89,144.27 205.10,143.66 205.10,143.66 C205.70,145.03 209.46,150.14 211.10,151.65 C212.53,152.92 215.31,154.43 216.91,154.74 C219.62,155.20 226.06,153.05 227.93,151.72 C231.19,149.30 232.32,145.01 232.65,142.81 C236.13,144.48 239.86,145.58 242.87,145.69 C244.91,145.72 247.96,145.39 249.40,144.89 C252.34,143.81 256.40,140.11 257.67,137.51 C258.60,135.48 258.06,132.50 257.87,131.26" fill="none" stroke="rgb(0, 0, 0)" stroke-width="8.86" stroke-opacity="1.00" stroke-linejoin="round"/>
<path d="M222.99,151.10 C223.33,150.73 228.90,156.05 230.48,156.90 C233.16,158.29 239.17,158.51 241.76,157.37 C242.51,157.02 245.01,155.23 245.45,154.51 C246.44,152.79 246.77,150.50 246.46,148.14 C246.28,146.86 246.26,145.60 246.36,145.17" fill="none" stroke="rgb(0, 0, 0)" stroke-width="8.86" stroke-opacity="1.00" stroke-linejoin="round"/>
<path d="M169.89,62.23 C169.89,62.23 169.13,62.65 169.13,62.65 C169.58,62.38 174.34,59.11 176.57,57.90 C182.33,54.81 190.70,51.63 201.98,48.17 C210.87,45.61 222.83,43.10 230.92,42.16 C235.32,41.71 245.87,40.71 246.60,40.68 C247.99,40.61 250.57,40.62 251.79,40.65" fill="none" stroke="rgb(0, 0, 0)" stroke-width="8.86" stroke-opacity="1.00" stroke-linejoin="round"/>
<path d="M170.41,61.65 C169.39,61.18 163.89,58.21 158.97,56.68 C155.67,55.68 149.29,54.62 145.71,54.29 C142.99,54.07 138.44,54.98 135.55,56.79 C132.93,58.47 129.79,63.00 128.82,65.20 C126.41,70.76 124.91,80.50 123.91,91.42 C123.19,99.49 121.81,114.21 121.17,120.85 C120.62,127.55 119.77,142.60 120.54,147.88 C120.98,150.77 122.47,155.52 123.58,157.55 C124.76,159.65 127.93,163.28 129.78,164.71 C132.07,166.39 137.54,168.06 140.23,168.02 C142.77,167.90 149.75,165.63 152.40,164.13 C155.08,162.56 158.94,159.68 161.66,157.24 C163.77,155.33 165.64,153.13 167.24,150.52 C168.91,147.73 170.00,144.99 170.65,141.85 C171.92,135.67 172.88,121.40 173.18,114.90 C173.40,107.84 173.21,88.77 173.13,87.13 C172.88,82.23 174.55,74.21 174.79,73.09" fill="none" stroke="rgb(0, 0, 0)" stroke-width="8.86" stroke-opacity="1.00" stroke-linejoin="round"/>
<path d="M248.57,40.76 C249.65,39.38 250.29,38.56 250.50,38.30 C251.36,37.26 254.78,34.58 258.91,31.57 C263.22,28.57 267.60,26.14 271.07,25.23 C275.54,24.10 283.10,22.71 285.95,22.81 C290.37,23.03 295.64,25.36 297.93,27.56 C300.04,29.67 302.20,32.44 303.65,35.02 C306.43,40.03 310.74,53.06 312.15,60.83 C312.73,64.10 315.15,82.56 316.11,90.50 C317.00,98.79 318.65,115.85 317.99,121.14 C317.58,124.38 316.03,129.85 315.02,131.30 C314.60,131.86 312.70,134.06 312.22,134.40 C309.80,136.06 304.10,136.14 301.76,135.48 C299.46,134.79 294.60,131.86 292.53,129.85 C288.32,125.67 284.85,119.01 279.38,107.46 C275.67,99.57 268.89,84.99 265.81,78.30 C264.52,75.52 262.00,70.15 260.76,67.58" fill="none" stroke="rgb(0, 0, 0)" stroke-width="8.86" stroke-opacity="1.00" stroke-linejoin="round"/>
<path d="M171.57,150.46 C172.57,152.51 172.11,165.65 170.88,171.36 C170.20,174.47 168.00,180.26 166.60,182.71 C164.11,187.00 154.00,199.08 148.54,204.55 C142.59,210.38 116.75,230.04 114.51,232.49 C110.21,237.29 99.05,264.02 97.51,269.25 C95.68,275.57 95.03,289.34 95.36,297.36 C95.50,300.57 96.70,316.92 97.66,321.82 C101.13,338.28 105.93,360.37 106.10,360.85 C106.92,363.12 108.42,366.03 109.36,367.33" fill="none" stroke="rgb(0, 0, 0)" stroke-width="8.86" stroke-opacity="1.00" stroke-linejoin="round"/>
<path d="M169.40,150.46 C169.40,150.46 170.72,149.62 170.72,149.62 C170.49,155.46 170.28,157.94 170.13,159.56 C170.10,160.07 170.06,160.93 170.02,162.16" fill="none" stroke="rgb(0, 0, 0)" stroke-width="8.86" stroke-opacity="1.00" stroke-linejoin="round"/>
<path d="M287.46,129.27 C286.10,131.82 285.16,134.10 284.76,136.06 C284.62,136.74 283.77,144.45 284.01,148.17 C284.50,155.37 286.87,163.55 290.47,173.54 C292.88,180.44 297.50,194.84 298.99,201.79 C300.56,209.17 301.36,217.55 302.10,229.58 C302.54,236.74 303.33,250.06 303.66,256.22 C303.93,263.22 300.49,314.05 300.59,317.49 C301.00,328.45 301.63,336.48 301.88,337.37 C302.61,339.78 303.98,341.80 305.52,342.69 C308.03,344.08 313.20,346.47 313.83,347.07 C315.16,348.40 316.55,351.36 316.67,353.16 C316.74,354.93 314.20,359.79 311.91,361.98 C309.79,363.95 304.58,366.91 301.48,367.93 C297.71,369.14 291.49,370.21 287.88,370.34 C284.82,370.42 281.47,369.95 280.75,369.25 C280.34,368.86 279.72,367.80 278.88,366.07" fill="none" stroke="rgb(0, 0, 0)" stroke-width="8.86" stroke-opacity="1.00" stroke-linejoin="round"/>
<path d="M270.10,291.11 C270.11,290.26 270.12,289.40 270.13,288.54 C270.14,288.22 270.14,287.97 270.13,287.79 C270.12,288.32 275.64,327.53 276.56,337.01 C277.00,342.42 277.21,350.66 277.30,352.78 C277.60,358.88 280.58,368.15 281.39,368.62" fill="none" stroke="rgb(0, 0, 0)" stroke-width="8.86" stroke-opacity="1.00" stroke-linejoin="round"/>
<path d="M234.46,249.02 C234.12,253.22 230.96,272.08 230.61,276.29 C230.27,280.42 230.02,299.77 230.44,305.34 C231.18,314.81 237.59,341.46 239.35,348.49 C240.76,354.15 241.25,359.78 241.11,362.46 C240.94,365.01 238.09,369.49 236.41,370.83 C234.10,372.62 227.61,374.50 225.16,375.00 C222.94,375.42 217.42,374.83 213.94,374.45 C209.64,374.02 206.26,373.04 204.22,371.69 C202.68,370.63 201.26,368.69 200.53,366.65 C199.67,364.12 198.40,356.98 198.52,353.47 C198.57,352.24 199.22,343.34 199.15,339.59 C198.79,328.98 199.91,313.55 200.09,309.27 C200.27,301.85 200.51,287.70 199.63,281.71 C199.07,278.06 197.91,270.30 197.52,266.71 C197.41,265.73 197.06,261.81 196.95,260.63" fill="none" stroke="rgb(0, 0, 0)" stroke-width="8.86" stroke-opacity="1.00" stroke-linejoin="round"/>
<path d="M233.64,323.19 C233.42,322.13 236.46,317.35 238.06,315.22 C241.03,311.33 251.95,301.46 258.02,297.52 C261.36,295.39 269.37,290.28 269.99,289.86 C272.32,288.25 276.69,283.40 278.34,281.10 C281.09,277.23 286.36,264.10 287.95,256.45 C288.68,252.86 289.87,245.46 290.26,242.13 C290.70,238.31 290.95,230.93 290.86,226.62 C290.76,223.04 290.62,218.35 290.58,217.25" fill="none" stroke="rgb(0, 0, 0)" stroke-width="8.86" stroke-opacity="1.00" stroke-linejoin="round"/>
<path d="M136.68,283.56 C140.27,279.98 143.64,276.84 146.29,275.22 C148.27,274.03 155.08,270.92 159.09,269.35 C162.86,267.91 169.17,266.78 172.77,266.87 C175.46,266.97 183.05,268.70 184.92,270.33 C187.20,272.41 190.14,277.85 190.96,280.53 C192.58,285.99 193.58,303.84 193.54,308.76 C193.45,316.82 191.90,330.05 190.61,337.18 C189.73,341.96 184.98,357.66 183.79,360.50" fill="none" stroke="rgb(0, 0, 0)" stroke-width="8.86" stroke-opacity="1.00" stroke-linejoin="round"/>
<path d="M185.29,358.40 C185.29,358.40 197.43,357.65 197.43,357.65" fill="none" stroke="rgb(0, 0, 0)" stroke-width="8.86" stroke-opacity="1.00" stroke-linejoin="round"/>
<path d="M107.88,362.66 C107.56,363.83 110.40,366.64 113.73,368.98 C116.60,370.95 120.84,372.64 126.70,374.63 C142.48,379.87 160.14,383.86 166.43,384.56 C170.07,384.95 177.73,384.71 181.14,384.16 C184.05,383.66 191.95,381.42 195.48,379.80 C201.54,376.98 206.65,371.39 207.22,370.71 C207.40,370.49 207.58,370.24 207.76,369.97" fill="none" stroke="rgb(0, 0, 0)" stroke-width="8.86" stroke-opacity="1.00" stroke-linejoin="round"/>
<path d="M97.29,320.14 C96.41,320.45 95.73,320.65 95.26,320.72 C92.36,321.18 85.80,319.49 83.68,318.72 C78.65,316.86 68.54,310.65 64.02,306.67 C59.34,302.52 50.79,292.27 47.06,285.73 C45.12,282.30 42.57,277.21 41.90,275.25 C39.99,269.50 38.02,258.91 37.88,256.83 C37.86,256.48 37.84,256.14 37.82,255.79" fill="none" stroke="rgb(0, 0, 0)" stroke-width="8.86" stroke-opacity="1.00" stroke-linejoin="round"/>
<path d="M36.24,259.15 C36.17,258.75 36.14,258.50 36.14,258.41 C36.14,258.27 36.16,258.69 36.12,258.83 C35.87,259.72 34.03,267.26 34.00,269.68 C33.99,272.87 35.30,281.69 36.19,285.02 C37.47,289.72 44.04,303.73 47.47,309.18 C51.62,315.72 60.12,326.54 64.21,330.25 C68.40,334.01 81.34,343.15 88.57,346.50 C90.40,347.33 97.51,350.26 99.34,350.58 C100.18,350.73 101.34,350.84 102.83,350.90 C103.22,350.92 103.72,350.92 104.33,350.90" fill="none" stroke="rgb(0, 0, 0)" stroke-width="8.86" stroke-opacity="1.00" stroke-linejoin="round"/>
<path d="M284.67,126.67 C284.67,126.67 284.72,125.78 284.72,125.78 C284.72,125.78 284.18,137.21 284.18,137.21 C284.18,137.21 284.43,127.83 284.43,127.83 C284.43,127.83 284.07,136.56 284.07,136.56 C284.09,135.53 284.12,132.72 284.10,131.60 C284.08,130.48 283.97,127.66 283.92,126.64 C283.92,126.64 283.30,139.21 283.30,139.21 C283.26,138.25 283.15,135.57 283.12,134.30 C283.08,131.13 283.04,127.59 283.05,127.55 C283.06,130.73 283.07,138.67 283.02,139.22 C282.99,139.57 282.89,140.20 282.73,141.14" fill="none" stroke="rgb(0, 0, 0)" stroke-width="8.86" stroke-opacity="1.00" stroke-linejoin="round"/>
<path d="M179.59,136.35 C176.39,140.90 174.95,148.72 175.29,150.05 C175.29,150.05 178.07,140.15 178.07,140.15 C178.07,140.15 175.79,147.72 175.79,147.72 C175.79,147.72 177.27,138.91 177.27,138.91 C177.27,138.91 175.06,147.44 175.06,147.44 C175.06,147.44 177.43,138.14 177.43,138.14 C177.43,138.14 175.87,147.44 175.87,147.44" fill="none" stroke="rgb(255, 255, 255)" stroke-width="8.86" stroke-opacity="1.00" stroke-linejoin="round"/>
<path d="M176.50,141.64 C176.50,141.64 175.99,141.29 175.99,141.29 C175.63,143.45 175.63,144.93 176.12,146.47 C176.96,149.05 179.23,152.91 180.24,153.86 C180.26,150.35 177.73,144.10 175.99,141.50 C175.59,142.83 178.20,150.21 178.51,150.89 C179.35,152.71 180.29,154.15 180.51,154.09 C180.51,154.09 177.25,143.28 177.25,143.28 C177.25,143.28 180.20,151.67 180.20,151.67 C179.93,150.63 179.16,147.79 178.79,146.67 C178.42,145.55 177.36,142.77 176.96,141.76" fill="none" stroke="rgb(255, 255, 255)" stroke-width="8.86" stroke-opacity="1.00" stroke-linejoin="round"/>
<path d="M272.24,111.08 C274.93,113.87 277.72,117.25 278.25,118.72 C278.39,119.13 278.67,120.12 279.09,121.70 C279.09,121.70 273.76,111.36 273.76,111.36 C273.76,111.36 278.76,120.27 278.76,120.27 C278.76,120.27 275.32,111.53 275.32,111.53 C275.32,111.53 279.16,121.42 279.16,121.42 C279.16,121.42 275.53,110.56 275.53,110.56 C279.21,114.96 280.09,124.68 279.75,126.41 C279.75,126.41 278.94,114.83 278.94,114.83 C279.20,116.84 279.15,123.26 278.84,125.82 C278.52,128.43 277.26,133.90 277.01,135.01" fill="none" stroke="rgb(255, 255, 255)" stroke-width="8.86" stroke-opacity="1.00" stroke-linejoin="round"/>
<path d="M288.22,123.45 C287.62,124.86 287.17,126.04 286.85,127.11 C286.22,129.26 285.74,132.51 285.55,134.07 C285.41,135.27 285.27,136.47 285.13,137.67" fill="none" stroke="rgb(0, 0, 0)" stroke-width="8.86" stroke-opacity="1.00" stroke-linejoin="round"/>
<path d="M275.85,121.07 C276.25,121.98 276.63,123.18 276.84,124.41 C277.30,127.23 276.93,133.03 276.71,135.38 C276.56,136.85 276.34,138.78 276.25,139.52" fill="none" stroke="rgb(0, 0, 0)" stroke-width="8.86" stroke-opacity="1.00" stroke-linejoin="round"/>
<path d="M280.56,106.04 C280.56,106.04 280.30,106.02 280.30,106.02 C282.03,111.47 283.79,116.45 285.42,119.42 C285.82,120.14 287.84,123.39 288.60,124.61 C289.57,126.19 291.15,128.77 291.77,129.78" fill="none" stroke="rgb(0, 0, 0)" stroke-width="8.86" stroke-opacity="1.00" stroke-linejoin="round"/>
</g>
</svg>
