<?xml version="1.0" encoding="UTF-8" standalone="no"?>
<!DOCTYPE svg PUBLIC "-//W3C//DTD SVG 1.1//EN" "http://www.w3.org/Graphics/SVG/1.1/DTD/svg11.dtd">
<svg width="96.00" height="96.00" viewBox="0.00 0.00 400.00 400.00" xmlns="http://www.w3.org/2000/svg" xmlns:xlink="http://www.w3.org/1999/xlink">
<g stroke-linecap="round" transform="translate(21.00, -7.00)" id="Layer_8">
<path d="M349.80,205.57 C350.09,205.43 347.61,200.57 345.72,197.91 C344.55,196.28 332.23,181.10 328.32,177.24 C324.54,173.54 298.77,151.82 287.71,143.94 C278.70,137.86 268.90,131.82 262.29,128.38 C256.26,125.26 245.63,120.90 237.82,118.66 C230.93,116.86 220.77,116.49 208.68,116.39 C201.70,116.45 193.51,117.61 183.46,119.76 C175.48,121.56 164.27,125.39 157.69,128.35 C151.40,131.20 142.68,137.00 136.91,141.84 C131.25,146.69 123.18,155.97 119.71,161.78 C116.88,166.57 112.54,178.94 111.22,184.27 C110.21,188.43 106.67,210.92 106.33,214.04 C105.78,219.12 105.99,224.71 106.43,228.20 C107.18,233.65 107.88,237.26 108.71,239.66 C110.81,245.57 115.72,253.29 119.37,256.69 C124.03,260.98 132.34,265.75 142.24,269.80 C149.38,272.68 158.86,276.51 161.20,277.47" fill="none" stroke="rgb(0, 0, 0)" stroke-width="7.00" stroke-opacity="1.00" stroke-linejoin="round"/>
<path d="M350.11,203.11 C350.11,203.11 349.14,202.87 349.14,202.87 C349.14,204.56 348.26,208.79 347.56,210.47 C345.59,215.07 338.58,223.86 332.82,229.35 C327.44,234.33 314.83,245.73 309.93,249.43 C296.50,259.54 282.09,268.33 262.39,279.18 C257.63,281.77 243.63,287.64 238.55,289.24 C231.86,291.32 216.26,294.10 209.52,294.11 C202.64,294.08 191.87,291.94 182.56,289.34 C174.92,287.10 144.53,274.76 140.32,272.83 C139.25,272.33 135.99,270.71 135.00,270.22" fill="none" stroke="rgb(0, 0, 0)" stroke-width="7.00" stroke-opacity="1.00" stroke-linejoin="round"/>
<path d="M147.29,271.12 C147.29,271.12 147.46,271.82 147.46,271.82 C145.19,271.28 140.50,270.04 136.38,268.17 C134.25,267.18 130.60,265.49 129.08,264.78 C128.22,264.37 127.68,264.11 127.48,264.00 C127.37,263.93 127.32,263.89 127.34,263.85" fill="none" stroke="rgb(0, 0, 0)" stroke-width="7.00" stroke-opacity="1.00" stroke-linejoin="round"/>
<path d="M145.94,272.39 C144.21,272.34 137.68,269.73 134.75,268.45 C130.42,266.54 127.17,265.26 125.38,264.75 C125.38,264.75 148.38,273.95 148.38,273.95 C145.17,272.20 138.58,268.93 134.67,266.99 C131.64,265.50 127.86,263.62 127.09,263.24" fill="none" stroke="rgb(0, 0, 0)" stroke-width="7.00" stroke-opacity="1.00" stroke-linejoin="round"/>
<path d="M293.29,172.78 C294.53,173.15 297.44,176.84 296.85,178.74 C296.74,179.05 296.38,179.56 295.77,180.26 C294.21,180.68 292.46,180.43 290.66,179.30 C289.31,178.44 287.84,176.71 287.56,175.73 C287.25,174.50 288.75,172.15 290.14,172.20 C291.48,172.27 293.76,172.82 294.30,173.16 C294.53,173.31 294.75,173.46 294.97,173.61" fill="none" stroke="rgb(0, 0, 0)" stroke-width="7.00" stroke-opacity="1.00" stroke-linejoin="round"/>
<path d="M258.17,141.55 C256.52,145.84 254.52,151.95 253.48,156.20 C251.94,162.59 250.44,174.62 249.76,183.82 C249.39,190.25 248.93,204.92 249.09,212.19 C249.34,219.49 250.35,231.24 251.61,240.25 C253.70,253.80 257.99,268.07 258.26,268.93" fill="none" stroke="rgb(0, 0, 0)" stroke-width="7.00" stroke-opacity="1.00" stroke-linejoin="round"/>
<path d="M226.80,245.44 C226.56,245.89 226.34,246.32 226.13,246.73 C224.31,250.32 222.23,253.35 220.46,255.27 C216.56,259.45 207.49,266.32 202.99,268.38 C197.90,270.69 185.92,273.50 179.77,273.33 C176.00,273.20 169.11,271.46 166.04,269.77 C163.06,268.08 159.21,263.96 158.23,261.75 C157.69,260.46 157.19,258.48 156.63,255.45 C156.22,252.93 156.49,250.37 157.50,248.59 C159.32,245.52 163.11,242.90 166.07,242.00 C173.74,239.75 189.85,237.54 193.06,238.12 C193.15,238.13 200.55,239.92 201.77,240.21" fill="none" stroke="rgb(0, 0, 0)" stroke-width="7.00" stroke-opacity="1.00" stroke-linejoin="round"/>
<path d="M192.94,237.53 C192.94,237.53 192.87,237.53 192.87,237.53 C192.86,237.53 192.89,237.53 192.90,237.53 C195.05,237.41 198.75,237.98 199.39,238.20 C199.80,238.34 200.61,238.70 201.83,239.28" fill="none" stroke="rgb(0, 0, 0)" stroke-width="7.00" stroke-opacity="1.00" stroke-linejoin="round"/>
<path d="M252.49,124.47 C252.51,123.84 248.34,118.75 245.15,115.81 C241.10,112.10 230.71,105.83 222.60,101.67 C215.26,98.02 203.07,92.87 196.93,90.35 C191.22,88.14 174.61,83.16 169.07,82.44 C166.92,82.17 160.01,81.67 158.25,82.07 C157.38,83.00 157.19,84.20 157.71,86.26 C158.28,88.47 167.86,104.22 169.13,108.45 C170.76,114.19 169.25,121.56 168.25,124.25 C168.17,124.49 168.13,124.68 168.14,124.84" fill="none" stroke="rgb(0, 0, 0)" stroke-width="7.00" stroke-opacity="1.00" stroke-linejoin="round"/>
<path d="M114.27,172.50 C113.03,170.93 105.25,158.46 101.29,153.97 C97.21,149.37 87.07,139.55 80.78,134.06 C72.65,127.16 63.76,120.40 57.83,117.04 C51.83,113.66 41.28,109.46 33.01,107.44 C28.33,106.32 26.18,106.16 24.01,106.15" fill="none" stroke="rgb(0, 0, 0)" stroke-width="7.00" stroke-opacity="1.00" stroke-linejoin="round"/>
<path d="M25.51,105.45 C25.51,105.45 25.57,105.32 25.57,105.32 C23.57,108.28 21.80,115.43 21.58,118.79 C21.20,125.14 22.28,141.29 23.57,149.25 C24.66,155.91 28.28,168.32 31.09,176.07 C34.00,184.05 40.93,198.19 44.13,202.99 C44.60,203.69 46.51,206.30 47.09,207.08" fill="none" stroke="rgb(0, 0, 0)" stroke-width="7.00" stroke-opacity="1.00" stroke-linejoin="round"/>
<path d="M109.74,248.09 C108.82,255.47 105.72,265.92 102.11,273.10 C98.93,279.36 90.88,289.68 85.50,294.90 C79.05,301.04 70.52,308.35 63.57,313.19 C60.69,315.17 56.64,317.28 53.68,318.35 C50.60,319.42 45.16,320.08 41.96,318.94 C41.56,318.80 40.82,318.50 39.74,318.04" fill="none" stroke="rgb(0, 0, 0)" stroke-width="7.00" stroke-opacity="1.00" stroke-linejoin="round"/>
<path d="M43.94,319.55 C43.94,319.55 44.27,319.76 44.27,319.76 C44.17,319.78 42.95,318.74 41.61,317.46 C40.91,316.79 36.61,312.25 35.10,309.81 C30.76,302.64 25.73,288.18 24.62,282.40 C23.59,277.00 23.08,268.16 23.13,256.08 C23.29,246.35 25.15,236.16 26.18,232.92 C26.81,230.98 29.51,224.67 31.87,221.61 C32.65,220.61 41.85,209.94 42.14,209.64 C42.74,209.04 44.35,207.47 45.06,206.38" fill="none" stroke="rgb(0, 0, 0)" stroke-width="7.00" stroke-opacity="1.00" stroke-linejoin="round"/>
<path d="M42.71,202.92 C42.71,202.92 42.86,202.92 42.86,202.92 C42.86,202.92 43.44,207.03 43.44,207.03 C43.44,207.03 43.57,206.81 43.57,206.81" fill="none" stroke="rgb(0, 0, 0)" stroke-width="7.00" stroke-opacity="1.00" stroke-linejoin="round"/>
<path d="M236.71,146.90 C235.33,146.49 232.57,145.63 231.78,145.54 C229.81,145.34 225.72,146.16 224.39,147.16 C223.01,148.28 222.70,150.96 223.53,152.83 C224.55,154.97 227.71,157.41 228.53,158.13 C228.91,158.47 229.73,159.23 230.97,160.40" fill="none" stroke="rgb(0, 0, 0)" stroke-width="7.00" stroke-opacity="1.00" stroke-linejoin="round"/>
<path d="M223.09,168.04 C218.39,168.34 213.79,169.83 211.20,172.07 C209.99,173.19 208.65,175.21 208.34,176.50 C207.79,179.04 209.71,184.77 211.56,186.96 C212.18,187.67 213.47,188.87 213.83,189.15" fill="none" stroke="rgb(0, 0, 0)" stroke-width="7.00" stroke-opacity="1.00" stroke-linejoin="round"/>
<path d="M202.37,207.37 C197.93,208.02 195.00,209.03 194.41,211.00 C194.22,211.79 194.65,213.36 195.27,214.16 C195.60,214.56 198.34,217.29 198.96,218.01 C199.29,218.41 199.91,219.20 200.83,220.41" fill="none" stroke="rgb(0, 0, 0)" stroke-width="7.00" stroke-opacity="1.00" stroke-linejoin="round"/>
<path d="M185.94,150.30 C182.55,149.70 177.95,150.57 175.29,151.97 C175.07,152.10 172.38,153.82 171.94,154.31 C170.77,155.68 170.08,158.03 170.56,159.52 C171.17,161.32 175.21,165.80 175.76,166.54 C176.03,166.90 176.47,167.57 177.06,168.55" fill="none" stroke="rgb(0, 0, 0)" stroke-width="7.00" stroke-opacity="1.00" stroke-linejoin="round"/>
<path d="M174.23,202.82 C170.11,204.43 166.63,206.53 165.66,208.74 C165.28,209.69 165.76,211.43 166.54,212.21 C166.90,212.55 169.48,214.29 170.12,214.78 C170.39,214.99 170.83,215.36 171.43,215.88" fill="none" stroke="rgb(0, 0, 0)" stroke-width="7.00" stroke-opacity="1.00" stroke-linejoin="round"/>
<path d="M138.14,158.38 C136.45,159.24 134.03,160.72 133.05,161.65 C132.03,162.64 131.10,165.11 131.19,166.42 C131.39,168.41 135.38,173.58 137.33,175.60 C137.84,176.12 138.35,176.64 138.86,177.16" fill="none" stroke="rgb(0, 0, 0)" stroke-width="7.00" stroke-opacity="1.00" stroke-linejoin="round"/>
<path d="M137.94,229.09 C136.31,229.72 131.78,231.49 131.04,231.88 C129.46,232.73 128.03,234.77 128.15,236.04 C128.33,237.31 130.36,239.91 131.90,241.05 C132.51,241.48 134.66,242.45 135.69,242.93" fill="none" stroke="rgb(0, 0, 0)" stroke-width="7.00" stroke-opacity="1.00" stroke-linejoin="round"/>
<path d="M128.37,195.62 C126.12,197.73 124.94,198.95 124.67,199.78 C124.20,201.30 124.23,204.17 124.85,205.45 C125.41,206.54 127.67,208.81 128.93,209.58 C129.39,209.86 130.50,210.47 132.26,211.41" fill="none" stroke="rgb(0, 0, 0)" stroke-width="7.00" stroke-opacity="1.00" stroke-linejoin="round"/>
<path d="M240.09,255.51 C237.25,258.07 235.12,260.67 235.67,262.38 C236.04,263.39 237.74,264.95 239.32,265.81 C239.71,266.03 240.50,266.41 241.69,266.96" fill="none" stroke="rgb(0, 0, 0)" stroke-width="7.00" stroke-opacity="1.00" stroke-linejoin="round"/>
<path d="M210.03,127.75 C206.07,129.28 201.72,131.53 200.79,133.35 C200.31,134.40 201.02,136.71 202.13,137.96 C202.63,138.50 205.27,140.69 206.57,141.79" fill="none" stroke="rgb(0, 0, 0)" stroke-width="7.00" stroke-opacity="1.00" stroke-linejoin="round"/>
</g>
</svg>
