<?xml version="1.0" encoding="UTF-8" standalone="no"?>
<!DOCTYPE svg PUBLIC "-//W3C//DTD SVG 1.1//EN" "http://www.w3.org/Graphics/SVG/1.1/DTD/svg11.dtd">
<svg width="96.00" height="96.00" viewBox="0.00 0.00 400.00 400.00" xmlns="http://www.w3.org/2000/svg" xmlns:xlink="http://www.w3.org/1999/xlink">
<g stroke-linecap="round" id="Layer_6">
<path d="M108.19,202.19 C108.19,202.19 108.28,201.46 108.28,201.46 C107.24,201.42 104.79,205.30 105.69,207.43 C106.12,208.32 107.80,209.14 108.86,208.98 C109.88,208.80 111.14,207.69 111.63,206.66 C111.99,205.80 111.67,203.60 110.98,202.59 C110.33,201.64 108.49,201.16 106.44,201.05" fill="none" stroke="rgb(0, 0, 0)" stroke-width="7.00" stroke-opacity="1.00" stroke-linejoin="round"/>
<path d="M143.19,178.41 C144.18,176.66 148.11,172.75 150.98,170.59 C154.29,168.17 158.46,166.58 161.25,166.47 C163.86,166.41 166.99,166.88 169.40,167.81 C170.66,168.34 172.92,170.08 173.83,171.41 C175.59,174.05 175.49,181.10 174.69,183.07 C173.90,184.92 171.95,187.45 170.14,188.98 C169.15,189.80 166.23,191.50 165.26,191.80 C164.21,192.11 161.89,192.24 160.39,192.22" fill="none" stroke="rgb(0, 0, 0)" stroke-width="7.00" stroke-opacity="1.00" stroke-linejoin="round"/>
<path d="M54.93,240.94 C54.93,240.94 54.45,241.21 54.45,241.21 C57.40,238.11 62.40,231.68 67.66,222.49 C70.77,216.79 78.37,203.11 81.36,198.67 C85.64,192.33 93.19,184.21 99.13,179.39 C104.08,175.39 115.74,167.62 123.76,163.09 C130.10,159.57 137.82,156.33 148.73,152.05 C158.07,148.50 165.40,146.22 175.31,143.74 C182.87,141.93 196.54,138.93 202.21,138.61 C209.20,138.31 222.85,137.83 229.52,137.65 C235.49,137.61 249.15,139.04 256.70,140.36 C264.34,141.71 276.70,146.23 282.31,149.70 C287.94,153.21 298.91,161.69 303.23,166.31 C306.95,170.33 314.83,182.31 317.05,187.67 C318.22,190.53 318.94,194.57 319.19,197.63 C319.34,199.74 318.99,203.97 318.22,210.44 C317.89,213.11 317.25,217.91 315.94,221.07 C315.30,222.59 314.22,225.12 313.79,226.13" fill="none" stroke="rgb(0, 0, 0)" stroke-width="7.00" stroke-opacity="1.00" stroke-linejoin="round"/>
<path d="M54.96,240.02 C54.94,240.02 54.79,240.12 54.51,240.33 C53.69,240.94 52.88,241.55 52.07,242.16 C52.07,242.16 54.74,240.97 54.74,240.97 C52.08,244.06 50.61,246.49 51.03,247.31 C51.54,248.19 55.13,248.94 57.59,249.04 C74.61,249.39 101.32,251.52 103.10,251.69 C106.77,252.06 114.27,253.70 116.78,254.54 C120.68,255.97 134.32,258.56 139.65,259.55" fill="none" stroke="rgb(0, 0, 0)" stroke-width="7.00" stroke-opacity="1.00" stroke-linejoin="round"/>
<path d="M130.50,258.46 C130.50,258.46 130.36,258.29 130.36,258.29 C130.36,258.29 150.83,257.70 150.83,257.70" fill="none" stroke="rgb(0, 0, 0)" stroke-width="7.00" stroke-opacity="1.00" stroke-linejoin="round"/>
<path d="M171.18,257.38 C173.67,257.19 189.73,256.95 196.81,256.84 C203.51,256.64 222.79,252.79 225.89,251.98 C230.48,250.80 267.54,245.05 270.47,244.46" fill="none" stroke="rgb(0, 0, 0)" stroke-width="7.00" stroke-opacity="1.00" stroke-linejoin="round"/>
<path d="M293.36,237.19 C296.15,235.74 303.04,232.17 306.63,230.24 C310.60,228.07 315.55,223.94 316.51,221.73 C316.72,221.24 317.01,220.17 317.39,218.52" fill="none" stroke="rgb(0, 0, 0)" stroke-width="7.00" stroke-opacity="1.00" stroke-linejoin="round"/>
<path d="M51.93,242.43 C51.93,242.43 51.59,240.91 51.59,240.91 C51.18,240.61 49.15,241.89 47.81,243.48 C47.17,244.26 47.02,246.68 47.33,247.60 C47.89,248.94 50.19,249.85 52.00,249.35 C53.37,248.94 56.04,246.61 56.49,245.55 C56.88,244.52 56.14,242.63 55.13,241.64 C54.32,240.89 52.44,240.07 51.48,240.04 C50.29,240.06 48.56,241.24 47.99,242.51 C47.47,243.80 47.54,246.87 48.22,247.71 C48.48,248.01 49.14,248.47 50.19,249.06 C51.72,248.62 53.15,247.36 53.21,245.96 C53.23,244.85 51.37,242.77 50.07,242.38 C48.72,242.02 46.48,242.44 45.78,243.09 C45.37,243.53 44.74,245.02 44.82,245.73 C45.05,247.32 46.68,249.85 48.19,250.91 C48.91,251.40 50.95,251.22 51.62,250.89 C52.32,250.49 53.27,249.08 53.57,248.12 C53.82,247.18 53.36,244.82 52.66,243.93 C52.04,243.16 50.18,242.55 49.62,242.77 C49.02,243.07 48.30,244.52 48.27,245.61 C48.24,246.98 49.03,248.25 50.13,249.06 C51.58,248.68 52.69,247.76 52.97,246.33 C53.24,244.99 52.77,243.48 51.98,242.41 C50.13,242.84 50.15,245.02 50.40,246.16 C50.40,246.16 52.68,245.13 52.68,245.13" fill="none" stroke="rgb(0, 0, 0)" stroke-width="7.00" stroke-opacity="1.00" stroke-linejoin="round"/>
<path d="M106.64,172.44 C106.74,170.87 103.88,165.28 100.78,162.22 C99.53,161.02 95.50,158.69 93.56,158.16 C91.33,157.59 85.76,157.98 83.01,159.40 C81.54,160.19 79.00,162.41 77.96,163.80 C76.05,166.47 74.37,173.28 74.46,176.15 C74.66,179.23 76.14,183.14 78.27,185.76 C80.77,188.71 86.48,190.12 87.03,190.15" fill="none" stroke="rgb(0, 0, 0)" stroke-width="7.00" stroke-opacity="1.00" stroke-linejoin="round"/>
<path d="M318.19,203.87 C318.19,203.87 318.22,203.75 318.22,203.75 C320.90,203.72 325.39,202.04 328.09,200.38 C331.13,198.46 334.94,194.82 335.92,192.61 C336.84,190.42 337.56,184.12 337.45,180.98 C337.10,172.38 328.84,145.62 328.28,141.65 C327.93,139.03 327.89,131.51 328.17,129.71 C328.96,124.92 333.53,116.76 336.84,113.06 C339.15,110.52 341.32,108.53 343.84,106.83 C347.08,104.69 351.57,102.60 355.32,101.48 C358.52,100.55 365.36,99.22 367.46,99.07 C369.26,98.96 372.73,99.57 373.62,99.74" fill="none" stroke="rgb(0, 0, 0)" stroke-width="7.00" stroke-opacity="1.00" stroke-linejoin="round"/>
<path d="M368.13,99.69 C368.14,99.69 368.12,99.71 368.11,99.71 C363.90,100.88 352.27,106.25 348.88,109.09 C346.91,110.76 343.59,114.63 341.81,117.41 C340.22,119.94 338.96,124.95 338.18,130.39 C337.45,136.22 337.15,139.73 337.16,143.31 C337.21,146.56 338.40,150.90 340.35,155.94 C343.51,164.03 347.66,178.31 347.70,181.11 C347.72,184.68 347.09,190.21 346.22,193.27 C345.21,196.66 342.45,202.34 340.17,205.55 C337.83,208.80 332.93,213.90 330.28,215.77 C325.10,219.35 318.67,221.14 314.61,221.97" fill="none" stroke="rgb(0, 0, 0)" stroke-width="7.00" stroke-opacity="1.00" stroke-linejoin="round"/>
<path d="M156.76,252.86 C156.76,252.86 156.84,252.45 156.84,252.45 C156.86,252.42 156.88,252.51 156.86,252.54 C155.68,255.03 153.62,257.52 151.27,259.53 C147.61,262.63 138.25,269.30 137.19,270.83 C138.44,271.64 139.77,271.70 142.26,270.85 C146.03,269.56 149.90,267.83 152.65,266.85 C152.65,266.85 147.08,276.58 147.08,276.58 C149.01,276.65 159.82,268.54 160.20,268.48 C160.20,268.48 156.97,278.56 156.97,278.56 C158.71,276.94 172.08,252.13 172.19,251.94 C172.39,251.62 172.78,251.03 173.36,250.16" fill="none" stroke="rgb(0, 0, 0)" stroke-width="7.00" stroke-opacity="1.00" stroke-linejoin="round"/>
<path d="M278.79,235.79 C278.45,237.97 275.50,242.83 272.88,245.46 C271.92,246.42 265.16,252.58 263.22,254.67 C262.28,255.69 261.80,256.55 261.46,257.56 C261.46,257.56 262.26,258.21 262.26,258.21 C265.00,257.87 268.83,255.81 273.75,252.53 C274.34,252.13 275.77,251.13 276.15,250.98 C276.15,250.98 272.44,264.38 272.44,264.38 C272.44,264.38 284.33,253.03 284.33,253.03 C284.33,253.03 285.18,259.99 285.18,259.99 C290.78,250.64 291.00,233.43 290.89,232.94 C290.84,232.75 290.69,232.32 290.45,231.68" fill="none" stroke="rgb(0, 0, 0)" stroke-width="7.00" stroke-opacity="1.00" stroke-linejoin="round"/>
</g>
</svg>
